<svg width="189" height="87" viewBox="0 0 189 87" fill="none" xmlns="http://www.w3.org/2000/svg">
<path d="M0 52.8965H31.332V46.7605H0V52.8965Z" fill="#FCFCFC"/>
<path d="M12.5986 49.5749H18.7333V69.7695H12.5986V49.5749Z" fill="#FCFCFC"/>
<path d="M79.4242 69.7676H73.2896V46.7636H79.4242V69.7676Z" fill="#FCFCFC"/>
<path d="M107.582 46.7629H113.716V69.7695H107.582V46.7629Z" fill="#FCFCFC"/>
<path d="M123.684 48.3089V69.7676H117.55V46.7636H121.402L123.684 48.3089Z" fill="#FCFCFC"/>
<path d="M148.836 46.7636V69.7676H144.955L142.701 68.2156V46.7636H148.836Z" fill="#FCFCFC"/>
<path d="M148.836 65.3316V69.7676H144.954L142.701 68.2156L123.685 55.1062L123.101 54.7036L117.55 52.3502V46.7636H121.402L123.685 48.3089L142.701 61.1796L148.836 65.3316Z" fill="#FCFCFC"/>
<mask id="mask0_1031_11179" style="mask-type:luminance" maskUnits="userSpaceOnUse" x="0" y="0" width="189" height="87">
<path d="M0 0.499474H188.285V86.9941H0V0.499474Z" fill="white"/>
</mask>
<g mask="url(#mask0_1031_11179)">
<path d="M62.3235 62.1049C61.3475 63.0836 60.0021 63.6862 58.5101 63.6862H44.8701C41.8901 63.6862 39.4755 61.2716 39.4755 58.2916C39.4755 56.8036 40.0781 55.4542 41.0568 54.4782C42.0328 53.4996 43.3821 52.8969 44.8701 52.8969H58.5101C61.4901 52.8969 63.9048 55.3116 63.9048 58.2916C63.9048 59.7796 63.2995 61.1289 62.3235 62.1049ZM58.3181 46.7622H45.0981C38.7461 46.7622 33.5981 51.9116 33.5981 58.2636V58.2662C33.5981 64.6182 38.7461 69.7676 45.0981 69.7676H58.3181C64.6728 69.7676 69.8221 64.6182 69.8221 58.2662V58.2636C69.8221 51.9116 64.6728 46.7622 58.3181 46.7622Z" fill="#FCFCFC"/>
<path d="M180.787 62.1049C179.811 63.0836 178.466 63.6862 176.974 63.6862H163.334C160.354 63.6862 157.939 61.2716 157.939 58.2916C157.939 56.8036 158.542 55.4542 159.52 54.4782C160.496 53.4996 161.846 52.8969 163.334 52.8969H176.974C179.954 52.8969 182.368 55.3116 182.368 58.2916C182.368 59.7796 181.763 61.1289 180.787 62.1049ZM176.782 46.7622H163.562C157.21 46.7622 152.062 51.9116 152.062 58.2636V58.2662C152.062 64.6182 157.21 69.7676 163.562 69.7676H176.782C183.136 69.7676 188.286 64.6182 188.286 58.2662V58.2636C188.286 51.9116 183.136 46.7622 176.782 46.7622Z" fill="#FCFCFC"/>
<path d="M97.7753 57.4809C97.2873 57.9649 96.6179 58.2636 95.8779 58.2636H79.4246V52.8983H95.8779C97.3593 52.8983 98.5619 54.0983 98.5619 55.5836C98.5619 56.3236 98.2633 56.9929 97.7753 57.4809ZM101.738 49.2809C100.182 47.7249 98.0353 46.7636 95.6606 46.7636H78.2393V63.9609H95.6606C100.406 63.9609 104.259 60.1116 104.259 55.3623C104.259 52.9876 103.298 50.8369 101.738 49.2809Z" fill="#FCFCFC"/>
<path d="M79.4243 58.2637H79.1323V52.8983H79.4243V58.2637Z" fill="#FCFCFC"/>
<path d="M92.5356 63.1582L96.333 69.7676H103.345L99.0356 62.0262H94.1783L92.5356 63.1582Z" fill="#FCFCFC"/>
<path d="M29.8545 42.3359L44.6078 39.1959L61.1132 31.3813L70.9732 24.8079L76.0132 29.9679L88.5745 18.1613L95.9518 8.30127L106.249 23.7119L113.48 29.1893L119.833 22.9813L129.693 33.9373L138.969 38.9759L153.649 42.3359L138.165 40.5106L129.401 38.7573L118.3 27.8026L124.8 41.6053H106.468V39.5613L101.064 34.7399V28.5319L98.1425 24.8079L94.8558 28.6053V31.3079L89.1585 34.3026L87.4798 37.8613L78.7145 39.9253L88.7932 28.5319L93.8332 30.5039L95.2212 12.9759L85.7265 25.3186L73.8945 36.0546H70.8998L69.8772 28.0213L63.3772 35.1053L62.1358 33.2066L55.4172 39.4879L29.8545 42.3359Z" fill="#D61F26"/>
<path d="M72.4449 11.2331L67.1143 4.69447L73.6303 10.0531C74.0636 10.4091 74.1876 11.0011 73.9076 11.3745C73.6289 11.7478 73.0503 11.7625 72.6169 11.4051C72.5543 11.3545 72.4943 11.2931 72.4449 11.2331Z" fill="#D61F26"/>
<path d="M69.8032 19.7108L62.8579 18.8588L69.8072 18.0375C70.2686 17.9828 70.6872 18.3135 70.7419 18.7761C70.7966 19.2375 70.4672 19.6561 70.0046 19.7108C69.9379 19.7188 69.8672 19.7188 69.8032 19.7108Z" fill="#D61F26"/>
<path d="M88.7825 10.2243L94.2959 5.91493L89.9625 11.4096C89.6745 11.7749 89.1452 11.8376 88.7799 11.5496C88.4145 11.2616 88.3519 10.7323 88.6399 10.3669C88.6812 10.3136 88.7319 10.2643 88.7825 10.2243Z" fill="#D61F26"/>
<path d="M80.4455 7.44407L81.2975 0.498741L82.1188 7.44807C82.1735 7.90941 81.8428 8.32807 81.3801 8.38274C80.9188 8.43741 80.5001 8.10807 80.4455 7.64541C80.4375 7.57874 80.4375 7.50807 80.4455 7.44407Z" fill="#D61F26"/>
<path d="M70.3645 15.2657L66.7725 12.863L71.0085 13.7217C71.4565 13.8484 71.7165 14.3137 71.5898 14.7617C71.4631 15.2084 70.9978 15.4697 70.5498 15.343C70.4858 15.3244 70.4205 15.2977 70.3645 15.2657Z" fill="#D61F26"/>
<path d="M70.9857 24.0311L66.7471 24.8711L70.3484 22.4844C70.7551 22.2564 71.2684 22.4018 71.4951 22.8071C71.7231 23.2138 71.5777 23.7271 71.1724 23.9538C71.1137 23.9871 71.0484 24.0138 70.9857 24.0311Z" fill="#D61F26"/>
<path d="M84.8905 8.00433L87.2932 4.41233L86.4345 8.64833C86.3079 9.09633 85.8425 9.35633 85.3945 9.22966C84.9479 9.103 84.6865 8.63766 84.8132 8.18966C84.8319 8.12566 84.8585 8.06033 84.8905 8.00433Z" fill="#D61F26"/>
<path d="M76.1242 8.6269L75.2842 4.38823L77.6708 7.98957C77.8988 8.39623 77.7535 8.90957 77.3482 9.13623C76.9415 9.36423 76.4282 9.2189 76.2015 8.81357C76.1682 8.7549 76.1415 8.68957 76.1242 8.6269Z" fill="#D61F26"/>
<path d="M50.8545 85.1755C49.7531 86.5648 48.0931 86.9941 46.7891 86.9941C42.8331 86.9941 39.6265 84.1301 39.6265 80.5981C39.6265 77.0661 41.9185 73.9928 46.7891 74.2035C47.9958 74.2555 49.0878 74.7968 49.7078 75.2408C49.7105 75.2435 50.2425 75.6741 50.2425 74.9115L50.3705 74.9061V76.9715L50.2425 76.9528C50.0358 76.2781 49.6785 75.8915 49.5278 75.7648C48.9691 75.2901 48.0651 74.7435 46.7891 74.7141C43.0065 74.6301 41.4171 77.3488 41.4171 80.5981C41.4171 83.8475 43.7865 86.4821 46.7891 86.4821C47.8758 86.4821 49.4985 86.3235 50.7531 85.0741L50.8545 85.1755Z" fill="#A78764"/>
<path d="M76.5828 83.914L76.0708 86.4727H66.6721L66.6694 86.3447C67.3748 86.3447 67.3734 85.2567 67.3734 84.9367V75.7273C67.3734 75.4087 67.3748 74.3207 66.6694 74.3207L66.6721 74.1927H69.7361L69.7401 74.3207C69.0348 74.3207 69.0361 75.4087 69.0361 75.7273V85.9607H74.0241C75.4961 85.9607 76.1988 84.9367 76.4548 83.85L76.5828 83.914Z" fill="#A78764"/>
<path d="M96.0578 78.798C99.0605 78.798 99.8311 78.0513 99.8311 76.7513C99.8311 75.4513 99.0605 74.7047 96.0578 74.7047H94.1391V78.798H96.0578ZM102.644 86.3447V86.4727H99.5178L99.5111 86.3447C100.066 86.3447 99.6605 85.5833 99.3991 85.1487L95.7978 79.31H94.1391V84.938C94.1391 85.2567 94.1378 86.3447 94.8431 86.3447L94.8365 86.4727H91.7725V86.3447C92.4551 86.3447 92.4765 85.2913 92.4765 84.938V75.6527C92.4738 75.2647 92.4298 74.3207 91.7725 74.3207V74.194H96.0578C100.014 74.194 101.622 75.338 101.622 76.7513C101.622 77.9793 100.406 79.006 97.4898 79.2527L100.995 84.938C101.184 85.2433 101.94 86.3447 102.644 86.3447Z" fill="#A78764"/>
<path d="M58.6295 86.4763C55.6268 86.4763 53.2575 83.8416 53.2575 80.5923C53.2575 77.3429 55.6268 74.7083 58.6295 74.7083C61.6321 74.7083 64.0015 77.3429 64.0015 80.5923C64.0015 83.8416 61.6321 86.4763 58.6295 86.4763ZM58.6295 74.1976C54.6735 74.1976 51.4668 77.0603 51.4668 80.5923C51.4668 84.1243 54.6735 86.9883 58.6295 86.9883C62.5855 86.9883 65.7921 84.1243 65.7921 80.5923C65.7921 77.0603 62.5855 74.1976 58.6295 74.1976Z" fill="#A78764"/>
<path d="M84.1773 86.4763C81.1746 86.4763 78.8053 83.8416 78.8053 80.5923C78.8053 77.3429 81.1746 74.7083 84.1773 74.7083C87.18 74.7083 89.5493 77.3429 89.5493 80.5923C89.5493 83.8416 87.18 86.4763 84.1773 86.4763ZM84.1773 74.1976C80.2213 74.1976 77.0146 77.0603 77.0146 80.5923C77.0146 84.1243 80.2213 86.9883 84.1773 86.9883C88.1333 86.9883 91.34 84.1243 91.34 80.5923C91.34 77.0603 88.1333 74.1976 84.1773 74.1976Z" fill="#A78764"/>
</g>
<path d="M39.6265 80.5995C39.6265 84.1315 42.8331 86.9941 46.7891 86.9941C48.0931 86.9941 49.7531 86.5661 50.8545 85.1768L50.7531 85.0755C49.4985 86.3235 47.8758 86.4835 46.7891 86.4835C43.7865 86.4835 41.4171 83.8488 41.4171 80.5995C41.4171 77.3501 43.0065 74.6315 46.7891 74.7141C48.0651 74.7435 48.9678 75.2901 49.5278 75.7648C49.6785 75.8915 50.0345 76.2795 50.2425 76.9541L50.3691 76.9715V74.9048L50.2425 74.9115C50.2425 75.6741 49.7105 75.2435 49.7078 75.2408C49.0878 74.7968 47.9958 74.2568 46.7891 74.2035C46.6305 74.1968 46.4745 74.1928 46.3211 74.1928C41.7718 74.1928 39.6265 77.1821 39.6265 80.5995Z" fill="url(#paint0_linear_1031_11179)"/>
<path d="M66.6708 74.194L66.6694 74.3207C67.3748 74.3207 67.3748 75.4087 67.3734 75.7287V84.9367C67.3748 85.258 67.3748 86.3447 66.6694 86.3447L66.6708 86.4727H76.0721L76.5828 83.914L76.4548 83.85C76.1988 84.9367 75.4961 85.9607 74.0241 85.9607H69.0361V75.7287C69.0361 75.4087 69.0348 74.3207 69.7388 74.3207L69.7361 74.194H66.6708Z" fill="url(#paint1_linear_1031_11179)"/>
<path d="M91.772 74.194V74.3207C92.4293 74.3207 92.4746 75.2647 92.476 75.6513V84.9367C92.476 85.2913 92.4546 86.3447 91.772 86.3447V86.4727H94.8373L94.8426 86.3447C94.1373 86.3447 94.1386 85.258 94.1386 84.9367V79.3087H95.7973L99.3986 85.1487C99.6613 85.5847 100.065 86.3447 99.5106 86.3447L99.5186 86.4727H102.644V86.3447C101.94 86.3447 101.184 85.2433 100.995 84.9367L97.4893 79.2527C100.407 79.006 101.623 77.9793 101.623 76.7513C101.623 75.338 100.013 74.194 96.0573 74.194H91.772ZM94.1386 74.7047H96.0573C99.06 74.7047 99.8306 75.4513 99.8306 76.7513C99.8306 78.0513 99.06 78.798 96.0573 78.798H94.1386V74.7047Z" fill="url(#paint2_linear_1031_11179)"/>
<path d="M51.4668 80.5923C51.4668 84.1256 54.6735 86.9883 58.6295 86.9883C62.5855 86.9883 65.7921 84.1256 65.7921 80.5923C65.7921 77.0616 62.5855 74.1976 58.6295 74.1976C54.6735 74.1976 51.4668 77.0616 51.4668 80.5923ZM53.2575 80.5923C53.2575 77.3429 55.6268 74.7096 58.6295 74.7096C61.6321 74.7096 64.0015 77.3429 64.0015 80.5923C64.0015 83.8429 61.6321 86.4763 58.6295 86.4763C55.6268 86.4763 53.2575 83.8429 53.2575 80.5923Z" fill="url(#paint3_linear_1031_11179)"/>
<path d="M77.0146 80.5923C77.0146 84.1256 80.2213 86.9883 84.1773 86.9883C88.1333 86.9883 91.34 84.1256 91.34 80.5923C91.34 77.0616 88.1333 74.1976 84.1773 74.1976C80.2213 74.1976 77.0146 77.0616 77.0146 80.5923ZM78.8053 80.5923C78.8053 77.3429 81.1746 74.7096 84.1773 74.7096C87.18 74.7096 89.5506 77.3429 89.5506 80.5923C89.5506 83.8429 87.18 86.4763 84.1773 86.4763C81.1746 86.4763 78.8053 83.8429 78.8053 80.5923Z" fill="url(#paint4_linear_1031_11179)"/>
<mask id="mask1_1031_11179" style="mask-type:luminance" maskUnits="userSpaceOnUse" x="0" y="0" width="189" height="87">
<path d="M0 0.499474H188.285V86.9941H0V0.499474Z" fill="white"/>
</mask>
<g mask="url(#mask1_1031_11179)">
<path d="M110.008 79.0032C109.095 79.0032 108.322 79.3806 107.708 80.1232C107.098 80.8646 106.788 81.8019 106.788 82.9112C106.788 83.8779 107.047 84.6872 107.559 85.3192C108.071 85.9539 108.731 86.2752 109.519 86.2752C110.38 86.2752 111.118 85.8819 111.708 85.1059C112.296 84.3339 112.595 83.3739 112.595 82.2512C112.595 81.2672 112.36 80.4726 111.898 79.8886C111.432 79.3006 110.796 79.0032 110.008 79.0032ZM109.714 86.4766C108.575 86.4766 107.628 86.1019 106.899 85.3632C106.17 84.6232 105.8 83.6619 105.8 82.5059C105.8 81.4166 106.167 80.5112 106.89 79.8139C107.614 79.1166 108.554 78.7619 109.686 78.7619C110.232 78.7619 110.774 78.8659 111.295 79.0699C111.815 79.2739 112.25 79.5526 112.588 79.8979C112.908 80.2259 113.167 80.6392 113.356 81.1286C113.547 81.6179 113.643 82.1192 113.643 82.6166C113.643 83.7659 113.279 84.7059 112.559 85.4126C111.839 86.1192 110.882 86.4766 109.714 86.4766Z" fill="white"/>
<path d="M113.803 86.2754V86.0207C114.187 86.0167 114.451 85.9727 114.611 85.8874C114.788 85.7941 114.9 85.6501 114.944 85.4594C114.984 85.2821 115.003 84.7567 115.003 83.8541V79.4007H113.643V79.1474H115.003V78.4114C115.003 77.6821 115.034 77.1114 115.091 76.7154C115.15 76.3247 115.314 75.9154 115.583 75.4967C115.85 75.0794 116.191 74.7541 116.595 74.5301C117 74.3074 117.488 74.1941 118.047 74.1941C118.727 74.1941 119.278 74.3354 119.684 74.6154C120.08 74.8901 120.282 75.1674 120.282 75.4407C120.282 75.5927 120.232 75.7127 120.128 75.8114C120.024 75.9114 119.904 75.9594 119.764 75.9594C119.482 75.9594 119.215 75.7274 118.97 75.2701C118.666 74.7127 118.263 74.4301 117.772 74.4301C117.379 74.4301 117.031 74.5727 116.735 74.8554C116.442 75.1367 116.266 75.4927 116.21 75.9114C116.156 76.3154 116.128 77.1927 116.128 78.5181V79.1474H117.65V79.4007H116.128V83.8541C116.128 84.6421 116.139 85.1247 116.16 85.3287C116.183 85.5527 116.279 85.7274 116.446 85.8474C116.61 85.9647 116.883 86.0221 117.283 86.0221H117.587V86.2754H113.803Z" fill="white"/>
<path d="M131.112 86.2754V86.0207C131.496 86.0167 131.76 85.9727 131.92 85.8874C132.097 85.7941 132.209 85.6501 132.253 85.4594C132.293 85.2821 132.312 84.7567 132.312 83.8541V79.4007H130.952V79.1474H132.312V78.4114C132.312 77.6821 132.342 77.1114 132.4 76.7154C132.458 76.3247 132.622 75.9154 132.892 75.4967C133.158 75.0794 133.5 74.7541 133.904 74.5301C134.309 74.3074 134.797 74.1941 135.356 74.1941C136.036 74.1941 136.586 74.3354 136.993 74.6154C137.389 74.8901 137.59 75.1674 137.59 75.4407C137.59 75.5927 137.541 75.7127 137.437 75.8114C137.333 75.9114 137.213 75.9594 137.073 75.9594C136.79 75.9594 136.524 75.7274 136.278 75.2701C135.974 74.7127 135.572 74.4301 135.081 74.4301C134.688 74.4301 134.34 74.5727 134.044 74.8554C133.75 75.1367 133.574 75.4927 133.518 75.9114C133.465 76.3154 133.437 77.1927 133.437 78.5181V79.1474H134.958V79.4007H133.437V83.8541C133.437 84.6421 133.448 85.1247 133.469 85.3287C133.492 85.5527 133.588 85.7274 133.754 85.8474C133.918 85.9647 134.192 86.0221 134.592 86.0221H134.896V86.2754H131.112Z" fill="white"/>
<path d="M128.966 75.9195C128.731 75.9195 128.535 75.8368 128.367 75.6662C128.201 75.4968 128.118 75.2968 128.118 75.0542C128.118 74.8182 128.201 74.6208 128.367 74.4515C128.535 74.2808 128.73 74.1982 128.966 74.1982C129.201 74.1982 129.395 74.2808 129.559 74.4502C129.725 74.6208 129.805 74.8182 129.805 75.0542C129.805 75.2968 129.725 75.4968 129.559 75.6675C129.395 75.8368 129.201 75.9195 128.966 75.9195ZM127.185 86.2715V86.0182H127.41C127.855 86.0182 128.142 85.9515 128.286 85.8142C128.426 85.6795 128.509 85.5182 128.531 85.3315C128.553 85.1568 128.563 84.6728 128.563 83.8502V81.6448C128.563 80.7715 128.522 80.2502 128.437 80.0488C128.349 79.8395 128.226 79.7048 128.071 79.6502C127.929 79.5995 127.691 79.5742 127.347 79.5742H127.185V79.3128C128.209 79.2062 129.017 79.0488 129.587 78.8448L129.679 78.8475V83.8502C129.679 84.6382 129.691 85.1208 129.717 85.3262C129.742 85.5502 129.839 85.7235 130.006 85.8422C130.169 85.9608 130.442 86.0182 130.842 86.0182H130.951V86.2715H127.185Z" fill="white"/>
<path d="M123.445 86.2734V86.0201H123.617C123.991 86.0201 124.253 85.9681 124.418 85.8601C124.589 85.7508 124.691 85.5934 124.725 85.3948C124.755 85.2108 124.77 84.7068 124.77 83.8521V76.6481C124.77 75.8614 124.698 75.3734 124.551 75.1601C124.406 74.9468 124.083 74.8388 123.569 74.8281V74.5734C123.918 74.5681 124.325 74.5254 124.781 74.4481C125.281 74.3641 125.617 74.2801 125.809 74.1934L125.895 74.1974V83.8521C125.895 84.6401 125.906 85.1228 125.926 85.3268C125.95 85.5521 126.046 85.7254 126.213 85.8454C126.375 85.9628 126.649 86.0201 127.049 86.0201H127.185V86.2734H123.445Z" fill="white"/>
<path d="M139.157 78.9407C139.945 78.9407 140.581 79.2381 141.046 79.8261C141.321 80.1727 141.503 80.6047 141.614 81.0994H136.25C136.399 80.7207 136.601 80.3714 136.857 80.0607C137.47 79.3181 138.243 78.9407 139.157 78.9407ZM141.471 83.8834C141.325 84.3061 141.122 84.6954 140.857 85.0434C140.266 85.8194 139.529 86.2127 138.667 86.2127C137.879 86.2127 137.219 85.8914 136.707 85.2567C136.195 84.6247 135.937 83.8154 135.937 82.8487C135.937 82.2861 136.017 81.7687 136.175 81.2981H141.659H142.362H142.583C142.558 81.2207 142.535 81.1421 142.505 81.0661C142.315 80.5767 142.057 80.1634 141.737 79.8354C141.398 79.4901 140.963 79.2114 140.443 79.0074C139.922 78.8034 139.381 78.6994 138.834 78.6994C137.702 78.6994 136.762 79.0541 136.038 79.7514C135.315 80.4487 134.949 81.3541 134.949 82.4434C134.949 83.5994 135.318 84.5607 136.047 85.3007C136.777 86.0394 137.723 86.4141 138.862 86.4141C140.03 86.4141 140.987 86.0567 141.707 85.3501C142.126 84.9394 142.419 84.4474 142.597 83.8834H141.471Z" fill="white"/>
<path d="M88.6205 14.4767C87.4418 16.0114 84.3405 19.6287 76.9818 26.3301C76.9392 26.3087 76.8965 26.2874 76.8525 26.2581C74.1858 24.7847 72.3818 21.9434 72.3818 18.6781C72.3818 13.8967 76.2592 10.0154 81.0445 10.0154C84.2405 10.0154 87.0285 11.7461 88.5285 14.3207C88.5632 14.3741 88.5925 14.4234 88.6205 14.4767Z" fill="#D61F26"/>
</g>
<defs>
<linearGradient id="paint0_linear_1031_11179" x1="39.6263" y1="80.5937" x2="102.645" y2="80.5937" gradientUnits="userSpaceOnUse">
<stop stop-color="#009344"/>
<stop offset="0.237431" stop-color="#662D90"/>
<stop offset="0.510056" stop-color="#BD1E2D"/>
<stop offset="0.764805" stop-color="#F8EC32"/>
<stop offset="1" stop-color="#8CC53F"/>
</linearGradient>
<linearGradient id="paint1_linear_1031_11179" x1="39.6266" y1="80.5936" x2="102.645" y2="80.5936" gradientUnits="userSpaceOnUse">
<stop stop-color="#009344"/>
<stop offset="0.237431" stop-color="#662D90"/>
<stop offset="0.510056" stop-color="#BD1E2D"/>
<stop offset="0.764805" stop-color="#F8EC32"/>
<stop offset="1" stop-color="#8CC53F"/>
</linearGradient>
<linearGradient id="paint2_linear_1031_11179" x1="39.6264" y1="80.5936" x2="102.645" y2="80.5936" gradientUnits="userSpaceOnUse">
<stop stop-color="#009344"/>
<stop offset="0.237431" stop-color="#662D90"/>
<stop offset="0.510056" stop-color="#BD1E2D"/>
<stop offset="0.764805" stop-color="#F8EC32"/>
<stop offset="1" stop-color="#8CC53F"/>
</linearGradient>
<linearGradient id="paint3_linear_1031_11179" x1="39.6266" y1="80.5932" x2="102.645" y2="80.5932" gradientUnits="userSpaceOnUse">
<stop stop-color="#009344"/>
<stop offset="0.237431" stop-color="#662D90"/>
<stop offset="0.510056" stop-color="#BD1E2D"/>
<stop offset="0.764805" stop-color="#F8EC32"/>
<stop offset="1" stop-color="#8CC53F"/>
</linearGradient>
<linearGradient id="paint4_linear_1031_11179" x1="39.6265" y1="80.5932" x2="102.645" y2="80.5932" gradientUnits="userSpaceOnUse">
<stop stop-color="#009344"/>
<stop offset="0.237431" stop-color="#662D90"/>
<stop offset="0.510056" stop-color="#BD1E2D"/>
<stop offset="0.764805" stop-color="#F8EC32"/>
<stop offset="1" stop-color="#8CC53F"/>
</linearGradient>
</defs>
</svg>
